<?xml version="1.0" encoding="iso-8859-1"?>
<!-- Generator: Adobe Illustrator 22.0.1, SVG Export Plug-In . SVG Version: 6.00 Build 0)  -->
<svg version="1.1" id="_x35_0" xmlns="http://www.w3.org/2000/svg" xmlns:xlink="http://www.w3.org/1999/xlink" x="0px" y="0px"
	 viewBox="0 0 512 512" style="enable-background:new 0 0 512 512;" xml:space="preserve">
<linearGradient id="SVGID_1_" gradientUnits="userSpaceOnUse" x1="19.0673" y1="34.5505" x2="478.4598" y2="476.0746">
	<stop  offset="0" style="stop-color:#FEF050"/>
	<stop  offset="0.0348" style="stop-color:#FAE73D"/>
	<stop  offset="0.0935" style="stop-color:#F5DB22"/>
	<stop  offset="0.1536" style="stop-color:#F2D20F"/>
	<stop  offset="0.2152" style="stop-color:#F0CD04"/>
	<stop  offset="0.2809" style="stop-color:#EFCB00"/>
	<stop  offset="0.6685" style="stop-color:#D99544"/>
	<stop  offset="0.8876" style="stop-color:#CD6F3C"/>
	<stop  offset="1" style="stop-color:#C34435"/>
</linearGradient>
<path style="fill:url(#SVGID_1_);" d="M83.5,177.65h188.003c1.381,0,2.5-1.119,2.5-2.5s-1.119-2.5-2.5-2.5H83.5
	c-6.893,0-12.5,5.607-12.5,12.5c0,6.22,4.573,11.379,10.53,12.328l8.684,32.825c0.296,1.12,1.309,1.861,2.416,1.861
	c0.211,0,0.427-0.027,0.641-0.084c1.335-0.354,2.131-1.722,1.778-3.057l-8.3-31.375l272.621,0.001l-35.277,127.813H179.881
	c-32.618,0-61.816-20.651-72.657-51.389c-0.458-1.303-1.886-1.988-3.189-1.526c-1.302,0.459-1.985,1.887-1.526,3.188
	c11.544,32.733,42.638,54.727,77.372,54.727h142.831l-12.549,45.465h-62.987c-1.381,0-2.5,1.119-2.5,2.5s1.119,2.5,2.5,2.5h64.89
	c1.125,0,2.11-0.751,2.41-1.835l50.586-183.278c0.207-0.752,0.052-1.559-0.421-2.18s-1.209-0.985-1.989-0.985L83.5,192.649
	c-4.136,0-7.5-3.364-7.5-7.5C76,181.015,79.365,177.65,83.5,177.65z"/>
<linearGradient id="SVGID_2_" gradientUnits="userSpaceOnUse" x1="29.3747" y1="23.826" x2="488.7671" y2="465.35">
	<stop  offset="0" style="stop-color:#FEF050"/>
	<stop  offset="0.0348" style="stop-color:#FAE73D"/>
	<stop  offset="0.0935" style="stop-color:#F5DB22"/>
	<stop  offset="0.1536" style="stop-color:#F2D20F"/>
	<stop  offset="0.2152" style="stop-color:#F0CD04"/>
	<stop  offset="0.2809" style="stop-color:#EFCB00"/>
	<stop  offset="0.6685" style="stop-color:#D99544"/>
	<stop  offset="0.8876" style="stop-color:#CD6F3C"/>
	<stop  offset="1" style="stop-color:#C34435"/>
</linearGradient>
<path style="fill:url(#SVGID_2_);" d="M379.158,132.848c-1.125,0-2.11,0.751-2.41,1.835l-10.479,37.968h-36.832
	c-1.381,0-2.5,1.119-2.5,2.5s1.119,2.5,2.5,2.5h38.735c1.125,0,2.11-0.751,2.41-1.835l10.479-37.968h69.795
	c4.136,0,7.5,3.364,7.5,7.5s-3.364,7.5-7.5,7.5h-56.472c-1.125,0-2.11,0.751-2.41,1.835L325.39,395.929H154.492
	c-4.136,0-7.5-3.364-7.5-7.5s3.364-7.5,7.5-7.5h35.963c1.381,0,2.5-1.119,2.5-2.5s-1.119-2.5-2.5-2.5h-35.963
	c-6.893,0-12.5,5.607-12.5,12.5c0,6.333,4.738,11.568,10.853,12.379c-6.565,4.72-10.853,12.417-10.853,21.103
	c0,14.326,11.655,25.981,25.981,25.981c14.327,0,25.982-11.655,25.982-25.981c0-8.61-4.213-16.251-10.683-20.981h105.241
	c-6.47,4.73-10.683,12.371-10.683,20.981c0,14.326,11.655,25.981,25.981,25.981s25.981-11.655,25.981-25.981
	c0-8.61-4.213-16.251-10.683-20.981h8.183c1.125,0,2.11-0.751,2.41-1.835l66.585-241.246h54.568c6.893,0,12.5-5.607,12.5-12.5
	s-5.607-12.5-12.5-12.5H379.158z M188.955,421.91c0,11.569-9.413,20.981-20.982,20.981s-20.981-9.412-20.981-20.981
	s9.412-20.981,20.981-20.981S188.955,410.341,188.955,421.91z M324.793,421.91c0,11.569-9.412,20.981-20.981,20.981
	s-20.981-9.412-20.981-20.981s9.412-20.981,20.981-20.981S324.793,410.341,324.793,421.91z"/>
<linearGradient id="SVGID_3_" gradientUnits="userSpaceOnUse" x1="9.478" y1="44.5279" x2="468.8705" y2="486.0519">
	<stop  offset="0" style="stop-color:#FEF050"/>
	<stop  offset="0.0348" style="stop-color:#FAE73D"/>
	<stop  offset="0.0935" style="stop-color:#F5DB22"/>
	<stop  offset="0.1536" style="stop-color:#F2D20F"/>
	<stop  offset="0.2152" style="stop-color:#F0CD04"/>
	<stop  offset="0.2809" style="stop-color:#EFCB00"/>
	<stop  offset="0.6685" style="stop-color:#D99544"/>
	<stop  offset="0.8876" style="stop-color:#CD6F3C"/>
	<stop  offset="1" style="stop-color:#C34435"/>
</linearGradient>
<path style="fill:url(#SVGID_3_);" d="M184.605,248.5h9.414c1.381,0,2.5-1.119,2.5-2.5s-1.119-2.5-2.5-2.5h-9.414
	c-6.893,0-12.5,5.607-12.5,12.5s5.607,12.5,12.5,12.5h89.806c6.893,0,12.5-5.607,12.5-12.5s-5.607-12.5-12.5-12.5h-40.266
	c-1.381,0-2.5,1.119-2.5,2.5s1.119,2.5,2.5,2.5h40.266c4.136,0,7.5,3.364,7.5,7.5s-3.364,7.5-7.5,7.5h-89.806
	c-4.136,0-7.5-3.364-7.5-7.5S180.47,248.5,184.605,248.5z"/>
</svg>
